<?xml version="1.0" encoding="UTF-8" standalone="no"?>
<!-- Created with Inkscape (http://www.inkscape.org/) -->

<svg
   width="1000"
   height="1000"
   viewBox="0 0 264.58333 264.58333"
   version="1.1"
   id="svg1"
   xml:space="preserve"
   xmlns="http://www.w3.org/2000/svg"
   xmlns:svg="http://www.w3.org/2000/svg"><defs
     id="defs1" /><path
     style="display:inline;fill:#ffffff;fill-opacity:1;stroke:#000000;stroke-width:1.13612082;stroke-dasharray:none"
     d="M 69.5344,115.5113 V 75.397556 h 5.100359 5.100358 v 21.277462 c 0,18.939212 0.04435,21.294252 0.403591,21.430122 0.221975,0.0839 1.251855,0.16733 2.288624,0.18526 l 1.885031,0.0326 0.0583,12.42791 c 0.05219,11.12328 0.01415,12.47142 -0.362255,12.84246 -0.231318,0.22801 -1.434575,1.24308 -2.673897,2.25573 -1.239319,1.01264 -3.018366,2.54993 -3.95343,3.41619 -0.935066,0.86626 -2.347473,2.05696 -3.138684,2.64599 -0.791209,0.58904 -2.174191,1.66561 -3.073292,2.39238 l -1.634731,1.32138 z"
     id="path6"
     transform="translate(-49.115437,-32.616965)" /><path
     style="display:inline;fill:#ffffff;fill-opacity:1;stroke:#000000;stroke-width:1.13605;stroke-dasharray:none"
     d="m 89.577691,138.4271 c -0.09068,-0.23306 -0.164967,-4.80919 -0.164967,-10.16918 v -9.74542 l 1.96456,-0.18145 c 1.521497,-0.14054 2.022908,-0.2889 2.223241,-0.65787 0.164412,-0.30283 0.25867,-8.09138 0.25867,-21.37602 V 75.397556 h 3.00791 3.007898 v 20.990475 c 0,11.544769 0.07143,21.173989 0.158757,21.398279 0.12327,0.31664 0.55706,0.4078 1.94028,0.4078 2.77494,0 2.60899,-0.26961 2.60899,4.23831 v 3.92533 l -1.11161,0.87749 c -0.61141,0.48262 -1.33681,1.05311 -1.61203,1.26776 -0.27524,0.21463 -1.55405,1.31837 -2.841815,2.45274 -3.170839,2.79314 -4.865228,4.23496 -6.059405,5.15621 -1.175283,0.90666 -1.351798,1.05396 -2.41368,2.01397 -0.687389,0.62146 -0.825379,0.66444 -0.966799,0.30118 z"
     id="path7"
     transform="translate(-49.115437,-32.616965)" /><path
     style="display:inline;fill:#ffffff;fill-opacity:1;stroke:#000000;stroke-width:1.13605;stroke-dasharray:none"
     d="m 109.81416,119.85171 0.0194,-1.59005 1.35388,-0.002 c 0.58277,-10e-4 1.76369,-0.0157 2.55017,-0.30986 V 96.673328 75.397578 h 3.0079 3.00791 l -0.001,18.884621 -0.001,18.884631 -4.49263,3.86716 c -6.03402,5.19396 -5.44382,4.88848 -5.44382,2.81773 z"
     id="path8"
     transform="translate(-49.115437,-32.616965)" /><path
     style="display:inline;fill:#ffffff;fill-opacity:1;stroke:#000000;stroke-width:1.13605;stroke-dasharray:none"
     d="M 133.87739,88.030274 V 75.397556 l 3.0733,-9.1e-5 3.07329,-9.3e-5 -0.0713,10.153721 -0.0712,10.153722 -1.26371,1.125581 c -0.69505,0.619073 -1.51177,1.305829 -1.81497,1.526133 -0.30317,0.220292 -1.02144,0.82937 -1.59615,1.353501 -0.57473,0.52413 -1.10892,0.95296 -1.18712,0.95296 -0.0781,0 -0.14216,-5.684721 -0.14216,-12.632716 z"
     id="path9"
     transform="translate(-49.115437,-32.616965)" /><path
     style="display:inline;fill:#ffffff;fill-opacity:1;stroke:#000000;stroke-width:1.13605;stroke-dasharray:none"
     d="m 154.01727,79.39362 v -3.996064 h 4.75126 4.75126 l -1.93953,1.808185 c -1.06674,0.994502 -2.58178,2.299668 -3.36675,2.900367 -0.78499,0.600702 -1.96201,1.583281 -2.61558,2.183511 -0.65357,0.60023 -1.2766,1.093293 -1.38449,1.095696 -0.10789,0.0024 -0.19617,-1.79386 -0.19617,-3.991695 z"
     id="path10"
     transform="translate(-49.115437,-32.616965)" /><path
     style="display:inline;font-weight:bold;font-size:138.273px;line-height:0;font-family:Sans;-inkscape-font-specification:'Sans Bold';text-align:center;text-anchor:middle;fill:#ffffff;fill-opacity:1;stroke:#000000;stroke-width:1.53611;stroke-dasharray:none;paint-order:markers fill stroke;stroke-opacity:1"
     d="m 114.20448,121.60186 25.8511,-22.66138 -1.7388,95.69822 c -0.29944,16.48022 -3.13756,28.80148 -9.41267,36.9545 -6.23384,8.15304 -15.68779,12.22955 -28.36187,12.22955 h -4.830188 v -25.78839 h 3.71553 c 4.954028,0 8.690208,-1.97917 11.208518,-5.93753 2.55958,-3.95836 3.83936,-9.77773 3.83936,-17.45813 z"
     id="text10"
     aria-label="J"
     transform="translate(-49.115437,-32.616965)" /><g
     id="layer1"
     style="display:inline"
     transform="translate(-49.115438,-32.616966)" /><g
     id="layer2"
     style="display:inline"
     transform="translate(-49.115438,-32.616966)"><path
       style="font-size:181.953px;line-height:0;font-family:Sans;-inkscape-font-specification:Sans;text-align:end;text-anchor:end;fill:#00ff00;fill-opacity:0;stroke:#000000;stroke-width:1.26383;paint-order:markers fill stroke"
       d="m 158.94064,84.016412 h 29.56759 L 225.93435,191.78656 263.55691,84.016412 h 29.56761 V 242.38337 H 273.77296 V 103.32169 L 235.95394,211.94042 H 216.01299 L 178.19398,103.32169 v 139.06168 h -19.25334 z"
       id="text12-7"
       aria-label="M" /></g><g
     id="layer3"
     style="display:none"
     transform="translate(-49.115438,-32.616966)"><path
       style="font-size:181.953px;line-height:0;font-family:Sans;-inkscape-font-specification:Sans;text-align:end;text-anchor:end;display:inline;fill:#00ff00;fill-opacity:0;stroke:#000000;stroke-width:1.26257;paint-order:markers fill stroke"
       d="m 158.99037,83.979387 h 29.52101 l 37.36714,134.248843 37.5633,-134.248843 h 29.52102 V 242.27953 H 273.64177 V 103.27652 l -37.75944,138.26636 -19.90953,-0.19046 -37.75944,-138.0759 v 139.00301 h -19.22299 z"
       id="text12"
       aria-label="M" /></g><text
     xml:space="preserve"
     style="font-size:169.333px;line-height:0;font-family:Sans;-inkscape-font-specification:Sans;text-align:end;text-anchor:end;fill:#ffffff;fill-opacity:0.987802;stroke:#000000;stroke-width:1.1;paint-order:markers fill stroke"
     x="164.86348"
     y="123.27193"
     id="text1"><tspan
       id="tspan1"
       style="stroke-width:1.1"
       x="164.86348"
       y="123.27193" /></text><path
     style="fill:#26ffff;fill-opacity:0.967021;stroke:#000000;stroke-width:1.1;paint-order:markers fill stroke"
     d="m 20.656941,42.728365 c 93.565739,0 93.565739,0 93.565739,0"
     id="path1" /><path
     style="display:inline;fill:#26ffff;fill-opacity:0.967021;stroke:#000000;stroke-width:1.1;paint-order:markers fill stroke"
     d="M 35.219486,110.88719 C 105.53039,50.574564 105.53039,50.574564 105.53039,50.574564 v 0"
     id="path2" /><path
     style="display:inline;fill:#000000;fill-opacity:1;stroke:#000000;stroke-width:1.46934;paint-order:markers fill stroke"
     d="m 135.36047,368.24945 c 0,-25.32577 -0.10104,-46.14788 -0.22454,-46.27135 -0.1235,-0.12347 -3.73457,-0.34167 -8.0246,-0.48489 -4.29003,-0.14322 -7.92642,-0.3863 -8.08086,-0.54017 -0.63632,-0.63396 -0.76616,-11.17084 -1.01636,-82.48182 l -0.26196,-74.66031 h 24.61978 24.61977 l -0.0191,34.54696 c -0.0224,40.59529 -0.61207,119.14688 -0.9085,121.02944 -0.19664,1.24885 -0.28801,1.32444 -2.02477,1.67486 -1.5472,0.31218 -12.15903,1.43013 -13.61001,1.43381 -0.40491,0.001 -0.44923,6.07101 -0.27806,38.08239 0.11199,20.94465 0.29726,38.63782 0.41169,39.31816 0.20665,1.22852 0.17119,1.26836 -5.19135,5.83145 -2.96969,2.52697 -6.43707,5.4886 -7.70529,6.5814 l -2.30585,1.98692 z"
     id="path3"
     transform="scale(0.26458333)" /><path
     style="display:inline;fill:#000000;fill-opacity:0.967021;stroke:#000000;stroke-width:1.46934;paint-order:markers fill stroke"
     d="m 211.80137,337.41604 c -0.13352,-11.75615 -0.22311,-12.45916 -1.80413,-14.15722 -1.62976,-1.75041 -2.51637,-1.96164 -9.07707,-2.16258 l -6.18488,-0.18944 -0.2191,-9.36567 c -0.1205,-5.15112 -0.23978,-40.4977 -0.26506,-78.54795 l -0.046,-69.18227 h 23.85596 23.85596 v 78.43873 c 0,61.25369 -0.0943,78.497 -0.4303,78.70467 -0.23666,0.14627 -3.58482,0.33518 -7.44034,0.4198 l -7.01005,0.15386 0.0592,7.00699 0.0592,7.00699 -7.61311,6.54101 -7.61312,6.541 z"
     id="path11"
     transform="scale(0.26458333)" /><path
     style="display:inline;fill:#000000;fill-opacity:0.967021;stroke:#000000;stroke-width:1.46934;paint-order:markers fill stroke"
     d="m 269.13054,231.67875 v -67.86784 h 24.33648 24.33648 l 0.23385,44.08934 c 0.12862,24.24914 0.32636,45.21775 0.43943,46.59691 l 0.20557,2.50758 -24.77591,21.27093 -24.7759,21.27094 z"
     id="path12"
     transform="scale(0.26458333)" /><path
     style="fill:#000000;fill-opacity:1;stroke:#000000;stroke-width:1.46934;paint-order:markers fill stroke"
     d="m 345.4696,221.67119 c 0,-6.68378 0.10562,-22.43661 0.23471,-35.0063 l 0.23472,-22.85398 h 24.15137 24.15138 l 0.002,10.691 c 10e-4,5.88005 0.095,12.20188 0.20896,14.04851 l 0.20713,3.3575 -24.1162,20.67517 c -13.2639,11.37133 -24.33168,20.80234 -24.59504,20.95779 -0.39906,0.23552 -0.47886,-1.74256 -0.47886,-11.86969 z"
     id="path13"
     transform="scale(0.26458333)" /><path
     style="display:inline;fill:#000000;fill-opacity:1;stroke:#000000;stroke-width:4.294;stroke-dasharray:none;paint-order:markers fill stroke"
     d="M 417.5,494 V 197.5 h 53.76852 53.76852 l 70.88132,204.25 c 38.98473,112.3375 71.23363,204.925 71.66423,205.75 0.65082,1.24693 0.91796,1.16257 1.58335,-0.5 0.44025,-1.1 32.78281,-93.575 71.87237,-205.5 L 812.11024,198 865.80512,197.74131 919.5,197.48263 V 493.99131 790.5 h -34 -34 V 528.43358 266.36716 l -2.62852,0.31642 c -2.55609,0.3077 -4.48428,5.64814 -69.9783,193.81642 -37.04239,106.425 -68.98351,198.1125 -70.98027,203.75 l -3.63048,10.25 h -35.78976 -35.78976 l -2.61211,-7.25 C 628.65415,663.2625 596.70592,571.575 559.09474,463.5 492.81628,273.05011 490.63057,266.99026 488.10539,266.68358 L 485.5,266.36716 V 528.43358 790.5 h -34 -34 z"
     id="path15"
     transform="scale(0.26458333)" /><path
     style="display:none;fill:#000000;fill-opacity:1;stroke:#000000;stroke-width:4.294;stroke-dasharray:none;paint-order:markers fill stroke"
     d="m 179.5,749.5 v -45 h 5.42764 c 8.16815,0 20.25047,-1.90764 26.21382,-4.13881 15.85065,-5.93049 28.75573,-22.69388 34.2219,-44.45346 4.76016,-18.94914 4.66016,-14.92777 4.25155,-170.95978 l -0.38508,-147.05206 45.28154,-39.71815 c 24.90485,-21.84499 45.39578,-39.59656 45.53539,-39.44795 0.69662,0.74154 -6.57211,369.29611 -7.52937,381.77021 -6.03125,78.59341 -31.33149,124.62089 -79.24518,144.16689 -16.68,6.80447 -34.69702,9.83311 -58.49598,9.83311 H 179.5 Z"
     id="path16"
     transform="scale(0.26458333)" /></svg>
