<?xml version="1.0" encoding="UTF-8" standalone="no"?>
<!-- Created with Inkscape (http://www.inkscape.org/) -->

<svg
   width="1000"
   height="1000"
   viewBox="0 0 105.83333 105.83333"
   version="1.1"
   id="svg1"
   xml:space="preserve"
   sodipodi:docname="logo-siglas-v.svg"
   inkscape:version="1.3.1 (9b9bdc1480, 2023-11-25, custom)"
   xmlns:inkscape="http://www.inkscape.org/namespaces/inkscape"
   xmlns:sodipodi="http://sodipodi.sourceforge.net/DTD/sodipodi-0.dtd"
   xmlns="http://www.w3.org/2000/svg"
   xmlns:svg="http://www.w3.org/2000/svg"><sodipodi:namedview
     id="namedview1"
     pagecolor="#787b7a"
     bordercolor="#000000"
     borderopacity="0.25"
     inkscape:showpageshadow="2"
     inkscape:pageopacity="0.0"
     inkscape:pagecheckerboard="0"
     inkscape:deskcolor="#d1d1d1"
     inkscape:zoom="1.4413115"
     inkscape:cx="382.98453"
     inkscape:cy="218.89786"
     inkscape:window-width="1845"
     inkscape:window-height="1011"
     inkscape:window-x="0"
     inkscape:window-y="0"
     inkscape:window-maximized="1"
     inkscape:current-layer="layer4" /><defs
     id="defs1" /><g
     id="layer3"
     style="display:none"
     transform="translate(-49.115438,-32.616966)"><path
       style="font-size:181.953px;line-height:0;font-family:Sans;-inkscape-font-specification:Sans;text-align:end;text-anchor:end;display:inline;fill:#00ff00;fill-opacity:0;stroke:#000000;stroke-width:1.26257;paint-order:markers fill stroke"
       d="m 158.99037,83.979387 h 29.52101 l 37.36714,134.248843 37.5633,-134.248843 h 29.52102 V 242.27953 H 273.64177 V 103.27652 l -37.75944,138.26636 -19.90953,-0.19046 -37.75944,-138.0759 v 139.00301 h -19.22299 z"
       id="text12"
       aria-label="M" /></g><g
     id="layer1"
     style="display:inline"
     transform="matrix(0.70233124,0,0,0.70233124,199.40915,-46.37569)" /><g
     id="layer2"
     style="display:inline"
     transform="matrix(0.73624261,0,0,0.73624261,207.69746,393.10552)" /><g
     id="layer4"
     style="stroke:#000000;stroke-opacity:1"><path
       style="display:none;fill:#26ffff;fill-opacity:0.967021;stroke:#000000;stroke-width:1.69664;stroke-opacity:1;paint-order:markers fill stroke"
       d="m 25.392923,24.775556 c 154.731427,0 154.731427,0 154.731427,0"
       id="path1" /><path
       style="display:inline;fill:#000000;fill-opacity:1;stroke:none;stroke-width:0.339484;stroke-dasharray:none;stroke-opacity:1;paint-order:markers fill stroke"
       d="M 62.081181,58.403568 V 34.962663 h 4.250866 4.250874 l 5.603791,16.147735 c 3.082082,8.88127 5.63164,16.201118 5.665685,16.266339 0.05146,0.09858 0.07261,0.09189 0.125231,-0.03954 0.03478,-0.08697 2.591765,-7.397907 5.682135,-16.246567 l 5.618864,-16.088459 4.245045,-0.02047 4.245008,-0.02039 V 58.402903 81.844505 H 99.080725 96.392702 V 61.125892 40.407257 l -0.207772,0.02502 c -0.20211,0.0244 -0.354533,0.446529 -5.532383,15.322874 -2.928536,8.413818 -5.453772,15.662517 -5.611635,16.108213 l -0.287014,0.810358 H 81.924404 79.094902 L 78.888399,72.100536 C 78.774753,71.7853 76.249026,64.536606 73.27555,55.992334 68.035661,40.935607 67.862849,40.456519 67.663203,40.432269 l -0.205984,-0.02502 v 20.718628 20.718635 h -2.688004 -2.687994 z"
       id="path15" /><path
       style="font-weight:bold;font-size:138.273px;line-height:0;font-family:Sans;-inkscape-font-specification:'Sans Bold';text-align:center;text-anchor:middle;display:inline;fill:#000000;fill-opacity:1;stroke:none;stroke-width:0.518998;stroke-dasharray:none;stroke-opacity:1;paint-order:markers fill stroke"
       d="m 45.545052,51.366085 11.577438,-8.64568 -0.778725,27.262083 c -0.119999,4.201187 -1.405156,7.341223 -4.215467,9.419352 -2.791833,2.078135 -7.025795,3.1172 -12.701887,3.1172 h -2.163194 v -6.573222 h 1.663997 c 2.218667,0 3.891912,-0.504468 5.019742,-1.513418 1.146304,-1.008948 1.719452,-2.492254 1.719452,-4.449912 z"
       id="text10"
       aria-label="J" /><path
       style="fill:#000000;fill-opacity:0.967021;stroke:#000000;stroke-width:1.47939;stroke-dasharray:none;stroke-opacity:1;paint-order:markers fill stroke"
       d="m 62.85376,35.185381 c 0,-1.273917 0.02314,-4.276378 0.05142,-6.672137 l 0.05142,-4.355927 h 5.291619 5.291629 l 4.35e-4,2.037684 c 2.26e-4,1.120727 0.02078,2.325656 0.04577,2.677621 l 0.04537,0.639933 -5.283917,3.94065 c -2.906156,2.167355 -5.331129,3.964888 -5.388831,3.994518 -0.08744,0.04488 -0.104927,-0.332131 -0.104927,-2.262342 z"
       id="path13" /><path
       style="display:inline;fill:#000000;fill-opacity:0.967021;stroke:#000000;stroke-width:1.58988;stroke-dasharray:none;stroke-opacity:1;paint-order:markers fill stroke"
       d="M 46.12769,37.092803 V 24.157317 h 5.332179 5.332181 l 0.05124,8.403347 c 0.0282,4.621842 0.07151,8.618421 0.09628,8.881286 l 0.04502,0.477941 -5.42846,4.054201 -5.428459,4.054202 z"
       id="path12" /><path
       style="display:inline;fill:#000000;fill-opacity:0.967021;stroke:#000000;stroke-width:1.4574;stroke-dasharray:none;stroke-opacity:1;paint-order:markers fill stroke"
       d="m 33.566734,57.246138 c -0.02926,-2.240701 -0.04888,-2.374693 -0.395289,-2.69834 -0.357085,-0.333625 -0.551343,-0.373885 -1.988807,-0.412184 l -1.355123,-0.0361 -0.04801,-1.78508 c -0.0264,-0.981794 -0.05252,-7.718789 -0.05806,-14.971097 l -0.01009,-13.186015 h 5.226897 5.226898 v 14.950272 c 0,11.674843 -0.02067,14.961386 -0.09427,15.000968 -0.05186,0.02788 -0.785442,0.06388 -1.630195,0.08002 l -1.535919,0.02933 0.01299,1.335519 0.01299,1.33552 -1.668051,1.246705 -1.668052,1.246702 z"
       id="path11" /><path
       style="display:inline;fill:#ffffff;fill-opacity:0.997563;stroke:#000000;stroke-width:0.877443;stroke-dasharray:none;stroke-opacity:1"
       d="m 57.352215,32.8534 v -9.100245 l 2.545014,-6.4e-5 2.544997,-6.8e-5 -0.05905,7.314448 -0.05896,7.314447 -1.046483,0.810836 c -0.575575,0.445962 -1.2519,0.940681 -1.502982,1.099382 -0.251057,0.158692 -0.845861,0.597454 -1.321776,0.975023 -0.47594,0.377568 -0.918304,0.686485 -0.983062,0.686485 -0.06467,0 -0.117719,-4.095109 -0.117719,-9.100244 z"
       id="path9" /><path
       style="display:inline;fill:#ffffff;fill-opacity:1;stroke:#000000;stroke-width:0.877443;stroke-dasharray:none;stroke-opacity:1"
       d="m 37.425374,55.776643 0.01607,-1.145426 1.121152,-0.0015 c 0.482594,-7.01e-4 1.460518,-0.01133 2.111805,-0.223213 V 39.079607 23.753172 h 2.490854 2.490862 l -0.001,13.603935 -10e-4,13.603942 -3.720365,2.78579 c -4.996792,3.741579 -4.508046,3.52152 -4.508046,2.029812 z"
       id="path8" /><path
       style="display:inline;fill:#ffffff;fill-opacity:1;stroke:#000000;stroke-width:0.877493;stroke-dasharray:none;stroke-opacity:1"
       d="M 4.069566,52.649937 V 23.753155 h 4.2236253 4.2236237 v 15.327669 c 0,13.643262 0.03672,15.339764 0.334215,15.437641 0.183819,0.06044 1.036665,0.120537 1.895216,0.133455 l 1.561002,0.02349 0.04828,8.952707 c 0.04321,8.012888 0.01174,8.984047 -0.299985,9.251332 -0.191555,0.164252 -1.187977,0.895481 -2.214264,1.624962 -1.026284,0.729481 -2.499519,1.836899 -3.273849,2.460927 -0.7743271,0.624022 -1.9439472,1.48177 -2.5991506,1.906088 -0.6552034,0.424328 -1.8004549,1.199858 -2.5450041,1.723404 l -1.3537259,0.951885 z"
       id="path6" /><path
       style="display:inline;fill:#000000;fill-opacity:1;stroke:#000000;stroke-width:1.4574;stroke-dasharray:none;stroke-opacity:1;paint-order:markers fill stroke"
       d="m 16.818351,63.122928 c 0,-4.827044 -0.02213,-8.795699 -0.0492,-8.819232 -0.02706,-0.02354 -0.818253,-0.06513 -1.758207,-0.09242 -0.939959,-0.0273 -1.736701,-0.07362 -1.770538,-0.102951 -0.139421,-0.120832 -0.167868,-2.129142 -0.222688,-15.720886 l -0.05739,-14.230118 h 5.394252 5.39425 l -0.0041,6.584587 c -0.005,7.737389 -0.134104,22.709179 -0.199054,23.067992 -0.04309,0.238028 -0.06311,0.252436 -0.443633,0.319225 -0.338993,0.0595 -2.66407,0.27258 -2.981985,0.273282 -0.08872,1.91e-4 -0.09842,1.157123 -0.06092,7.258434 0.02454,3.992012 0.06512,7.364298 0.0902,7.493973 0.04527,0.234151 0.03751,0.241743 -1.137439,1.111459 -0.650665,0.481635 -1.410377,1.046116 -1.688246,1.254404 l -0.505218,0.3787 z"
       id="path3" /><path
       style="display:inline;fill:#ffffff;fill-opacity:1;stroke:#000000;stroke-width:0.877443;stroke-dasharray:none;stroke-opacity:1"
       d="m 74.030119,26.631804 v -2.878649 h 3.934536 3.934531 l -1.606129,1.302564 c -0.883371,0.716411 -2.137981,1.656615 -2.788018,2.089341 -0.650052,0.432729 -1.624746,1.14055 -2.165968,1.572939 -0.541228,0.432388 -1.057159,0.787577 -1.146503,0.789308 -0.08934,0.0018 -0.162449,-1.292245 -0.162449,-2.875503 z"
       id="path10" /><path
       style="display:inline;fill:#ffffff;fill-opacity:1;stroke:#000000;stroke-width:0.877443;stroke-dasharray:none;stroke-opacity:1"
       d="M 20.667485,69.157815 C 20.592385,68.989922 20.53088,65.69341 20.53088,61.832234 v -7.020319 l 1.626858,-0.130706 c 1.259958,-0.101238 1.675177,-0.208115 1.841075,-0.47391 0.136149,-0.218149 0.214205,-5.828797 0.214205,-15.398668 V 23.753155 h 2.49086 2.490852 v 15.120933 c 0,8.316517 0.05916,15.253129 0.131465,15.4147 0.102081,0.228099 0.461303,0.293768 1.606753,0.293768 2.297937,0 2.160513,-0.194218 2.160513,3.053156 v 2.827695 l -0.920528,0.632118 c -0.506311,0.347666 -1.107016,0.758627 -1.334927,0.913255 -0.227928,0.154618 -1.286914,0.949717 -2.353317,1.766884 -2.625783,2.012093 -4.028912,3.050744 -5.017815,3.71438 -0.973255,0.653137 -1.119428,0.759246 -1.998776,1.450809 -0.569229,0.447683 -0.683499,0.478644 -0.800609,0.216962 z"
       id="path7" /><path
       style="display:none;fill:#26ffff;fill-opacity:0.967021;stroke:#000000;stroke-width:1.69664;stroke-opacity:1;paint-order:markers fill stroke"
       d="M 49.475279,122.82733 C 165.74975,36.062924 165.74975,36.062924 165.74975,36.062924 v 0"
       id="path2" /></g></svg>
