<?xml version="1.0" encoding="UTF-8" standalone="no"?>
<!-- Created with Inkscape (http://www.inkscape.org/) -->

<svg
   width="800"
   height="200"
   viewBox="0 0 211.66666 52.916663"
   version="1.1"
   id="svg1"
   xml:space="preserve"
   sodipodi:docname="reworkPiano (copy).svg"
   inkscape:version="1.3.1 (9b9bdc1480, 2023-11-25, custom)"
   xmlns:inkscape="http://www.inkscape.org/namespaces/inkscape"
   xmlns:sodipodi="http://sodipodi.sourceforge.net/DTD/sodipodi-0.dtd"
   xmlns="http://www.w3.org/2000/svg"
   xmlns:svg="http://www.w3.org/2000/svg"><sodipodi:namedview
     id="namedview1"
     pagecolor="#787b7a"
     bordercolor="#000000"
     borderopacity="0.25"
     inkscape:showpageshadow="2"
     inkscape:pageopacity="0.0"
     inkscape:pagecheckerboard="0"
     inkscape:deskcolor="#d1d1d1"
     inkscape:zoom="1.0990785"
     inkscape:cx="435.81964"
     inkscape:cy="33.209639"
     inkscape:window-width="1845"
     inkscape:window-height="1011"
     inkscape:window-x="0"
     inkscape:window-y="0"
     inkscape:window-maximized="1"
     inkscape:current-layer="layer4" /><defs
     id="defs1" /><g
     id="layer3"
     style="display:none"
     transform="translate(-49.115438,-32.616966)"><path
       style="font-size:181.953px;line-height:0;font-family:Sans;-inkscape-font-specification:Sans;text-align:end;text-anchor:end;display:inline;fill:#00ff00;fill-opacity:0;stroke:#000000;stroke-width:1.26257;paint-order:markers fill stroke"
       d="m 158.99037,83.979387 h 29.52101 l 37.36714,134.248843 37.5633,-134.248843 h 29.52102 V 242.27953 H 273.64177 V 103.27652 l -37.75944,138.26636 -19.90953,-0.19046 -37.75944,-138.0759 v 139.00301 h -19.22299 z"
       id="text12"
       aria-label="M" /></g><g
     id="layer1"
     style="display:inline"
     transform="matrix(0.70233124,0,0,0.70233124,199.40915,-46.37569)" /><g
     id="layer2"
     style="display:inline"
     transform="matrix(0.73624261,0,0,0.73624261,207.69746,393.10552)" /><g
     id="layer4"
     style="stroke:#000000;stroke-opacity:1"><path
       style="display:none;fill:#26ffff;fill-opacity:0.967021;stroke:#000000;stroke-width:1.69664;stroke-opacity:1;paint-order:markers fill stroke"
       d="m 25.392923,24.775556 c 154.731427,0 154.731427,0 154.731427,0"
       id="path1" /><g
       id="g4"
       transform="matrix(1.0228652,0,0,1.0228652,0.12066476,2.66492)"><g
         id="g3"
         transform="matrix(0.23047932,0,0,0.23047932,6.458908,1.9564272)"><path
           style="font-weight:bold;font-size:169.333px;line-height:0;font-family:Sans;-inkscape-font-specification:'Sans Bold';text-align:end;text-anchor:end;display:inline;fill:#000000;fill-opacity:1;stroke:none;stroke-width:1.13727;stroke-dasharray:none;stroke-opacity:1;paint-order:markers fill stroke"
           d="m 210.69227,106.21082 q -9.37245,0 -14.33435,7.14329 -4.88313,7.06021 -4.88313,20.43309 0,13.37289 4.88313,20.51617 4.9619,7.06022 14.33435,7.06022 9.21493,0 14.09806,-7.06022 4.88312,-7.14328 4.88312,-20.51617 0,-13.37288 -4.88312,-20.43309 -4.88313,-7.14329 -14.09806,-7.14329 z m 0,-21.263709 q 22.76167,0 35.52082,12.957578 12.83789,12.957571 12.83789,35.882511 0,22.92495 -12.83789,35.88253 -12.75915,12.95759 -35.52082,12.95759 -22.84043,0 -35.7571,-12.95759 -12.83789,-12.95758 -12.83789,-35.88253 0,-22.92494 12.83789,-35.882511 12.91667,-12.957578 35.7571,-12.957578 z m 137.75144,5.14981 v 22.592689 q -9.05741,-3.98695 -17.48473,-5.98042 -8.42733,-1.99346 -15.90954,-1.99346 -8.03354,0 -11.97154,2.15958 -3.85926,2.07654 -3.85926,6.4788 0,3.57164 2.91412,5.48206 2.99289,1.9104 10.63263,2.82407 l 4.96189,0.74755 q 21.65902,2.90715 29.14123,9.55206 7.48222,6.64491 7.48222,20.84843 0,14.86797 -10.39634,22.34349 -10.39633,7.47555 -31.03148,7.47555 -8.74237,0 -18.11482,-1.49512 -9.29371,-1.41205 -19.13872,-4.3192 v -22.59269 q 8.42733,4.31919 17.24846,6.47878 8.89991,2.15961 18.03608,2.15961 8.26981,0 12.44412,-2.40879 4.17427,-2.40878 4.17427,-7.14327 0,-3.98695 -2.91413,-5.89737 -2.83536,-1.99347 -11.42023,-3.07326 l -4.96187,-0.66451 q -18.82368,-2.49182 -26.38464,-9.2198 -7.561,-6.72799 -7.561,-20.43311 0,-14.784923 9.60875,-21.928205 9.60873,-7.143274 29.4563,-7.143274 7.79725,0 16.3821,1.245911 8.58485,1.245926 18.66613,3.903899 z m 115.77738,33.473729 v 56.64788 h -28.35364 v -9.21981 -33.97213 q 0,-12.21002 -0.55131,-16.7784 -0.47256,-4.56837 -1.73274,-6.72797 -1.65395,-2.90714 -4.48932,-4.4853 -2.83537,-1.66124 -6.45833,-1.66124 -8.82113,0 -13.86179,7.22634 -5.04063,7.14328 -5.04063,19.85168 v 45.76683 H 375.5372 V 50.974999 h 28.19613 v 49.836851 q 6.37957,-8.140022 13.54673,-11.960856 7.16717,-3.903883 15.83078,-3.903883 15.27947,0 23.15549,9.884301 7.95476,9.884318 7.95476,28.739238 z"
           id="text2"
           aria-label="osh" /><g
           id="g2"
           transform="matrix(1.0693937,0,0,1.0693937,28.769311,-3.8435592)"
           style="fill:#000000;fill-opacity:1;stroke:none;stroke-opacity:1"><path
             style="font-size:169.333px;line-height:0;font-family:Sans;-inkscape-font-specification:Sans;text-align:end;text-anchor:end;display:inline;fill:#000000;fill-opacity:1;stroke:none;stroke-width:0.879705;stroke-opacity:1;paint-order:markers fill stroke"
             d="M 533.8521,142.00823 V 98.601561 h 11.77999 v 42.958519 q 0,10.17945 3.96933,15.30117 3.96936,5.05772 11.90804,5.05772 9.53922,0 15.04507,-6.08207 5.56988,-6.08205 5.56988,-16.5816 V 98.601561 h 11.78 v 71.704229 h -11.78 v -11.01171 q -4.28944,6.5302 -9.98737,9.73128 -5.6339,3.13707 -13.12443,3.13707 -12.35617,0 -18.75834,-7.6826 -6.40217,-7.6826 -6.40217,-22.4716 z m 29.64202,-45.135243 z m 100.38592,3.841293 v 11.13976 q -4.99369,-2.56086 -10.37151,-3.84129 -5.37781,-1.28044 -11.13977,-1.28044 -8.77095,0 -13.18845,2.68891 -4.35346,2.68891 -4.35346,8.06673 0,4.09739 3.13706,6.46618 3.13706,2.30478 12.61225,4.4175 l 4.03337,0.8963 q 12.54823,2.68891 17.79802,7.61858 5.31378,4.86565 5.31378,13.63661 0,9.98737 -7.93868,15.81333 -7.87465,5.82598 -21.70333,5.82598 -5.76194,0 -12.03606,-1.15239 -6.21009,-1.08838 -13.12444,-3.32912 v -12.16413 q 6.53021,3.39316 12.86835,5.12173 6.33813,1.66457 12.54824,1.66457 8.32281,0 12.80432,-2.81696 4.48152,-2.88097 4.48152,-8.06671 0,-4.80163 -3.26511,-7.36249 -3.20107,-2.56086 -14.14877,-4.92967 l -4.09739,-0.96033 q -10.9477,-2.30477 -15.81335,-7.04238 -4.86564,-4.80162 -4.86564,-13.12442 0,-10.11543 7.17043,-15.62129 7.17042,-5.505853 20.35887,-5.505853 6.53021,0 12.29216,0.960319 5.76194,0.960324 10.62759,2.880974 z m 22.59962,-2.112719 h 11.77999 v 71.704229 h -11.77999 z m 0,-27.913419 h 11.77999 v 14.917035 h -11.77999 z m 88.02983,30.666348 v 11.01173 q -4.99369,-2.75294 -10.05146,-4.09739 -4.99361,-1.40847 -10.11544,-1.40847 -11.45987,0 -17.79798,7.29846 -6.33813,7.23445 -6.33813,20.35889 0,13.12443 6.33813,20.42288 6.33811,7.23445 17.79798,7.23445 5.12183,0 10.11544,-1.34444 5.05777,-1.40849 10.05146,-4.16142 v 10.88369 q -4.92969,2.30478 -10.24351,3.45717 -5.24975,1.15239 -11.20375,1.15239 -16.1975,0 -25.73676,-10.17944 -9.53918,-10.17945 -9.53918,-27.46528 0,-17.54194 9.60325,-27.59333 9.66725,-10.051393 26.44086,-10.051393 5.44189,0 10.62763,1.152381 5.18576,1.088376 10.05146,3.329122 z"
             id="text3"
             aria-label="usic" /><path
             style="display:inline;fill:#000000;fill-opacity:1;stroke:none;stroke-width:0.894606;stroke-dasharray:none;stroke-opacity:1;paint-order:markers fill stroke"
             d="M 415.65595,111.7808 V 50.008444 h 11.20205 11.20206 l 14.7673,42.553125 c 8.12201,23.404231 14.8407,42.693761 14.93041,42.865641 0.13559,0.25979 0.19124,0.2422 0.32987,-0.10417 0.0917,-0.22916 6.82992,-19.49527 14.97377,-42.813551 l 14.80703,-42.396875 11.1867,-0.05383 11.18671,-0.05383 v 61.774156 61.77415 h -7.0835 -7.0835 v -54.5985 -54.598519 l -0.54763,0.06593 c -0.53254,0.06409 -0.93425,1.176726 -14.57917,40.379409 -7.71736,22.17242 -14.37192,41.27446 -14.78792,42.44897 l -0.75637,2.13547 h -7.45638 -7.45639 l -0.54421,-1.51045 c -0.2993,-0.83077 -6.95534,-19.93279 -14.7912,-42.44897 C 431.34723,65.748562 430.89186,64.486071 430.36576,64.42217 l -0.54279,-0.06593 v 54.59852 54.5985 h -7.08351 -7.08351 z"
             id="path15" /></g><path
           style="font-weight:bold;font-size:138.273px;line-height:0;font-family:Sans;-inkscape-font-specification:'Sans Bold';text-align:center;text-anchor:middle;display:inline;fill:#000000;fill-opacity:1;stroke:none;stroke-width:1.59352;stroke-dasharray:none;stroke-opacity:1;paint-order:markers fill stroke"
           d="m 112.4429,87.677385 35.54711,-26.545499 -2.39098,83.704884 c -0.36845,12.89923 -4.31436,22.54033 -12.94308,28.92097 -8.57198,6.38066 -21.57184,9.57098 -38.999589,9.57098 h -6.641822 v -20.18227 h 5.109103 c 6.812144,0 11.949638,-1.54891 15.412498,-4.64677 3.51959,-3.09785 5.27937,-7.65216 5.27937,-13.66291 z"
           id="text10"
           aria-label="J" /></g><g
         id="g1"
         transform="matrix(0.3543616,0,0,0.3543616,-5.8346286,-6.1824031)"><path
           style="fill:#000000;fill-opacity:0.967021;stroke:#000000;stroke-width:2.95434;stroke-dasharray:none;stroke-opacity:1;paint-order:markers fill stroke"
           d="m 142.39115,47.68079 c 0,-2.544006 0.0462,-8.539906 0.10269,-13.324229 l 0.1027,-8.698767 h 10.56734 10.56736 l 8.7e-4,4.069247 c 4.5e-4,2.238088 0.0415,4.644325 0.0914,5.347197 l 0.0906,1.277945 -10.55196,7.86946 c -5.80358,4.328198 -10.64624,7.917864 -10.76147,7.977033 -0.17461,0.08964 -0.20953,-0.663261 -0.20953,-4.517886 z"
           id="path13" /><path
           style="display:inline;fill:#000000;fill-opacity:0.967021;stroke:#000000;stroke-width:3.175;stroke-dasharray:none;stroke-opacity:1;paint-order:markers fill stroke"
           d="m 108.98926,51.489904 v -25.83211 h 10.64834 10.64834 l 0.10232,16.781448 c 0.0563,9.2298 0.1428,17.210949 0.19227,17.735891 l 0.0899,0.954444 -10.84061,8.09622 -10.84061,8.096226 z"
           id="path12" /><path
           style="display:inline;fill:#000000;fill-opacity:0.967021;stroke:#000000;stroke-width:2.91042;stroke-dasharray:none;stroke-opacity:1;paint-order:markers fill stroke"
           d="m 83.905088,91.736025 c -0.05843,-4.474669 -0.09762,-4.742251 -0.789391,-5.388573 -0.713096,-0.666247 -1.10103,-0.746646 -3.971639,-0.82313 l -2.706174,-0.0721 -0.09587,-3.564796 C 76.289297,79.926786 76.237106,66.473038 76.226042,51.99021 l -0.02013,-26.332416 h 10.43809 10.438092 v 29.855641 c 0,23.314609 -0.04126,29.877822 -0.188278,29.956866 -0.103556,0.05567 -1.568524,0.127573 -3.255492,0.159786 l -3.067224,0.05856 0.0259,2.667027 0.0259,2.667026 -3.331089,2.489665 -3.331094,2.489659 z"
           id="path11" /><path
           style="display:inline;fill:#ffffff;fill-opacity:0.997563;stroke:#000000;stroke-width:1.75225;stroke-dasharray:none;stroke-opacity:1"
           d="M 131.40459,43.023836 V 24.850687 l 5.08238,-1.31e-4 5.08235,-1.34e-4 -0.11791,14.606919 -0.11774,14.60692 -2.08982,1.619236 c -1.14942,0.890584 -2.50004,1.878536 -3.00145,2.195461 -0.50136,0.316907 -1.68918,1.193113 -2.63958,1.947117 -0.95045,0.754001 -1.83385,1.370907 -1.96317,1.370907 -0.12915,0 -0.23509,-8.177914 -0.23509,-18.173146 z"
           id="path9" /><path
           style="display:inline;fill:#ffffff;fill-opacity:1;stroke:#000000;stroke-width:1.75225;stroke-dasharray:none;stroke-opacity:1"
           d="m 91.610775,88.80145 0.03208,-2.287411 2.238937,-0.0029 c 0.963737,-0.0014 2.916647,-0.02258 4.217264,-0.445757 V 55.457542 24.850718 h 4.974224 4.97424 l -0.002,27.166999 -0.002,27.167013 -7.42955,5.563211 c -9.978573,7.471916 -9.002548,7.032459 -9.002548,4.053524 z"
           id="path8" /><path
           style="display:inline;fill:#ffffff;fill-opacity:1;stroke:#000000;stroke-width:1.75235;stroke-dasharray:none;stroke-opacity:1"
           d="M 24.999374,82.557432 V 24.850687 h 8.43456 8.434559 v 30.609286 c 0,27.245532 0.07334,30.633441 0.667426,30.8289 0.367084,0.120697 2.070216,0.240718 3.78474,0.266511 l 3.117312,0.0469 0.09641,17.878516 c 0.08631,16.0017 0.0234,17.9411 -0.599068,18.47487 -0.382535,0.32801 -2.372384,1.78827 -4.421874,3.24504 -2.049486,1.45677 -4.991529,3.66828 -6.537862,4.91446 -1.546337,1.24618 -3.882061,2.9591 -5.190501,3.80646 -1.308438,0.84738 -3.595501,2.39611 -5.082361,3.44163 l -2.703386,1.90091 z"
           id="path6" /><path
           style="display:inline;fill:#000000;fill-opacity:1;stroke:#000000;stroke-width:2.91042;stroke-dasharray:none;stroke-opacity:1;paint-order:markers fill stroke"
           d="m 50.458643,103.47195 c 0,-9.639586 -0.0442,-17.564975 -0.09825,-17.61197 -0.05404,-0.047 -1.634048,-0.130047 -3.511134,-0.184561 -1.877087,-0.05451 -3.468178,-0.147034 -3.535752,-0.205601 -0.27842,-0.2413 -0.33523,-4.251887 -0.444705,-31.394539 L 42.754185,25.657794 h 10.772297 10.772293 l -0.0084,13.149393 c -0.0098,15.451531 -0.26781,45.35013 -0.397511,46.066677 -0.08604,0.475342 -0.126013,0.504113 -0.885932,0.637491 -0.676971,0.118827 -5.320139,0.544342 -5.955012,0.545742 -0.177166,3.81e-4 -0.196558,2.31077 -0.121664,14.495063 0.049,7.97203 0.130065,14.70647 0.180135,14.96543 0.09042,0.4676 0.0749,0.48276 -2.271458,2.21958 -1.299376,0.96182 -2.816516,2.08909 -3.371421,2.50504 l -1.008918,0.75626 z"
           id="path3" /><path
           style="display:inline;fill:#ffffff;fill-opacity:1;stroke:#000000;stroke-width:1.75225;stroke-dasharray:none;stroke-opacity:1"
           d="m 164.71029,30.599336 v -5.748649 h 7.85725 7.85724 l -3.20743,2.601215 c -1.76409,1.430668 -4.26954,3.308251 -5.56766,4.172404 -1.29815,0.864156 -3.24461,2.277673 -4.32543,3.14115 -1.08083,0.863478 -2.11114,1.572787 -2.28956,1.576244 -0.17842,0.0035 -0.32441,-2.580607 -0.32441,-5.742364 z"
           id="path10" /><path
           style="display:inline;fill:#ffffff;fill-opacity:1;stroke:#000000;stroke-width:1.75225;stroke-dasharray:none;stroke-opacity:1"
           d="m 58.145343,115.52359 c -0.149959,-0.33528 -0.272809,-6.9184 -0.272809,-14.62915 V 86.874892 l 3.24883,-0.26103 c 2.516129,-0.202177 3.345321,-0.415605 3.676616,-0.946397 0.271891,-0.435644 0.427767,-11.64008 0.427767,-30.75107 V 24.850687 h 4.974238 4.974218 V 55.04712 c 0,16.60805 0.118125,30.460433 0.262539,30.783091 0.203854,0.455512 0.921221,0.586653 3.208678,0.586653 4.588971,0 4.314536,-0.387855 4.314536,6.097139 v 5.646893 l -1.83829,1.262337 c -1.011101,0.694287 -2.210708,1.514977 -2.665845,1.823767 -0.45517,0.30877 -2.569962,1.89658 -4.699563,3.52846 -5.243677,4.01814 -8.04572,6.09232 -10.020553,7.4176 -1.943587,1.30431 -2.235494,1.51621 -3.991548,2.89726 -1.136748,0.89402 -1.364945,0.95585 -1.598814,0.43327 z"
           id="path7" /></g></g><path
       style="display:none;fill:#26ffff;fill-opacity:0.967021;stroke:#000000;stroke-width:1.69664;stroke-opacity:1;paint-order:markers fill stroke"
       d="M 49.475279,122.82733 C 165.74975,36.062924 165.74975,36.062924 165.74975,36.062924 v 0"
       id="path2" /></g></svg>
